<?xml version="1.0" encoding="UTF-8" standalone="no"?>
<!-- Created with Inkscape (http://www.inkscape.org/) -->

<svg
   version="1.1"
   id="svg2"
   xml:space="preserve"
   width="458.88"
   height="266.88"
   viewBox="0 0 458.88 266.88"
   xmlns="http://www.w3.org/2000/svg"
   xmlns:svg="http://www.w3.org/2000/svg"><defs
     id="defs6"><clipPath
       clipPathUnits="userSpaceOnUse"
       id="clipPath16"><path
         d="M 7.2,7.2 H 336.96 V 192.96 H 7.2 Z"
         id="path14" /></clipPath><clipPath
       clipPathUnits="userSpaceOnUse"
       id="clipPath26"><path
         d="M 7.2,7.2 H 336.96 V 192.96 H 7.2 Z"
         id="path24" /></clipPath><clipPath
       clipPathUnits="userSpaceOnUse"
       id="clipPath36"><path
         d="M 7.2,7.2 H 336.96 V 192.96 H 7.2 Z"
         id="path34" /></clipPath><clipPath
       clipPathUnits="userSpaceOnUse"
       id="clipPath46"><path
         d="M 7.2,7.2 H 336.96 V 192.96 H 7.2 Z"
         id="path44" /></clipPath><clipPath
       clipPathUnits="userSpaceOnUse"
       id="clipPath56"><path
         d="M 7.2,7.2 H 336.96 V 192.96 H 7.2 Z"
         id="path54" /></clipPath><clipPath
       clipPathUnits="userSpaceOnUse"
       id="clipPath66"><path
         d="M 7.2,7.2 H 336.96 V 192.96 H 7.2 Z"
         id="path64" /></clipPath></defs><g
     id="g8"
     transform="matrix(1.3333333,0,0,-1.3333333,0,266.88)"><g
       id="g10"><g
         id="g12"
         clip-path="url(#clipPath16)"><path
           d="M 22.189091,15.643636 H 91.502806"
           style="fill:none;stroke:#000000;stroke-width:2;stroke-linecap:butt;stroke-linejoin:round;stroke-miterlimit:10;stroke-dasharray:none;stroke-opacity:1"
           id="path18" /></g></g><g
       id="g30"><g
         id="g32"
         clip-path="url(#clipPath36)"><path
           d="m 22.189091,33.413254 1.732843,27.600171 1.732843,76.896645 1.732843,37.48304 1.732842,-58.90733 1.732843,42.67368 1.732843,-18.21334 1.732843,-25.06418 1.732843,15.11329 1.732843,-68.943047 1.732843,-17.561584 1.732843,19.093851 1.732842,31.368217 1.732843,0.555843 1.732843,15.07384 1.732843,26.35363 1.732843,-1.25262 1.732843,35.43968 1.732843,-13.84556 1.732843,-52.12769 1.732843,-2.81734 1.732842,-18.891536 1.732843,-5.56588 1.732843,4.739889 1.732843,-8.963322 1.732843,9.964645 1.732843,28.153934 1.732843,33.03452 1.732843,-7.71393 1.732842,-0.98967 1.732843,-6.72008 1.732843,-16.07656 1.732843,5.69309 1.732843,-18.62369 1.732843,-21.946485 1.732843,3.146624 1.732843,17.385919 1.732842,20.626302 1.732843,7.49341 1.732843,-1.88059 1.732843,3.21473 1.732843,5.23422 1.732843,-8.74533 1.732843,-12.46408 1.732843,-13.679249 1.732842,-3.387246 1.73284,8.383495 1.73285,3.07916 1.73284,-4.19227 1.73284,2.31822 1.73285,2.80032 1.73284,-6.46978 1.73284,-11.580856 1.73284,-13.519029 1.73285,-8.764068 1.73284,0.0016 1.73284,-20.899101 1.73285,-16.639158 1.73284,-1.796156 1.73284,12.186433 1.73284,61.069715 1.73285,83.16573 1.73284,-34.1543 1.73284,-22.04982 1.73284,28.57488 1.73285,-47.12275 1.73284,13.74327 1.73284,-27.900405 1.73285,-60.322526 1.73284,11.600923 1.73284,36.6313 1.73284,26.394308 1.73285,0.81579 1.73284,26.61798 1.73284,-0.54429 1.73285,14.85448 1.73284,21.55242 1.73284,-52.80747 1.73285,-33.288194 1.73284,-5.372078 1.73284,-13.151598 1.73284,14.975641 1.73285,2.766532 1.73284,-1.168398 1.73284,19.638455 1.73285,36.64303 1.73284,12.45382 1.73284,-17.32689 1.73284,-7.05275 1.73285,-23.20614 1.73284,-4.69965 1.73284,6.97656 1.73285,-22.77733 1.73284,-6.422744 1.73284,17.562065 1.73284,13.966449 1.73285,19.90981 1.73284,9.4782 1.73284,-14.99311 1.73285,1.18029 1.73284,-1.49653 1.73284,-15.12785 3.46569,-14.743723 1.73284,-1.35814 1.73284,15.125823 1.73285,2.84506 1.73284,-4.90709 1.73284,2.59107 1.73284,-7.11496 1.73285,-14.420756 1.73284,-6.548922 1.73284,-12.82361 1.73285,-6.6979 1.73284,-9.097676 1.73284,-21.515331 1.73284,-2.788765 1.73285,13.60045 1.73284,45.9786 1.73284,91.02857 1.73285,-10.52873 1.73284,-42.52354 1.73284,26.86278 1.73284,-43.3601 1.73285,0.49806 1.73284,-7.38615 1.73284,-62.151092 1.73285,1.457258 1.73284,35.190432 1.73284,37.897882 1.73284,5.12714 1.73285,20.36028 1.73284,2.61183 1.73284,-2.54611 1.73285,27.36322 1.73284,-41.82359 1.73284,-44.588215 1.73284,-6.238996 1.73285,-11.783523 1.73284,17.664483 1.73284,14.933549 1.73285,-0.264935 1.73284,13.461247 1.73284,28.63316 1.73285,20.2818 1.73284,-19.65035 1.73284,-13.36746 1.73284,-24.11895 1.73285,-10.838214 1.73284,11.183794 1.73284,-8.352397 1.73285,-5.43463 1.73284,9.494013 1.73284,20.157914 1.73284,15.76125 1.73285,9.87674 1.73284,-14.05281 1.73284,-10.05324 1.73285,-2.3774 1.73284,-8.85639 1.73284,-5.49983 1.73284,-5.959314 1.73285,0.699131 1.73284,11.290673 1.73284,8.8658 3.46569,-10.51497 1.73284,-9.466806 1.73284,-14.742207 1.73285,-6.102619 1.73284,-8.762927 1.73284,-10.519025 1.73285,-11.575245 1.73284,-19.689897 v 0"
           style="fill:none;stroke:#000000;stroke-width:2;stroke-linecap:square;stroke-linejoin:round;stroke-miterlimit:10;stroke-dasharray:none;stroke-opacity:1"
           id="path38" /></g></g><g
       id="g40"><g
         id="g42"
         clip-path="url(#clipPath46)"><path
           d="m 22.189091,9.643636 v 12"
           style="fill:#000000;fill-opacity:1;fill-rule:nonzero;stroke:#000000;stroke-width:2;stroke-linecap:butt;stroke-linejoin:round;stroke-miterlimit:10;stroke-dasharray:none;stroke-opacity:1"
           id="path48" /></g></g><g
       id="g50"><g
         id="g52"
         clip-path="url(#clipPath56)"><path
           d="m 91.502806,9.643636 v 12"
           style="fill:#000000;fill-opacity:1;fill-rule:nonzero;stroke:#000000;stroke-width:2;stroke-linecap:butt;stroke-linejoin:round;stroke-miterlimit:10;stroke-dasharray:none;stroke-opacity:1"
           id="path58" /></g></g><g
       id="g60"><g
         id="g62"
         clip-path="url(#clipPath66)" /></g></g></svg>
