<?xml version="1.0" encoding="UTF-8" standalone="no"?>
<!-- Created with Inkscape (http://www.inkscape.org/) -->

<svg
   version="1.1"
   id="svg2"
   xml:space="preserve"
   width="458.88"
   height="266.88"
   viewBox="0 0 458.88 266.88"
   xmlns="http://www.w3.org/2000/svg"
   xmlns:svg="http://www.w3.org/2000/svg"><defs
     id="defs6"><clipPath
       clipPathUnits="userSpaceOnUse"
       id="clipPath16"><path
         d="M 7.2,7.2 H 336.96 V 192.96 H 7.2 Z"
         id="path14" /></clipPath><clipPath
       clipPathUnits="userSpaceOnUse"
       id="clipPath26"><path
         d="M 7.2,7.2 H 336.96 V 192.96 H 7.2 Z"
         id="path24" /></clipPath><clipPath
       clipPathUnits="userSpaceOnUse"
       id="clipPath36"><path
         d="M 7.2,7.2 H 336.96 V 192.96 H 7.2 Z"
         id="path34" /></clipPath><clipPath
       clipPathUnits="userSpaceOnUse"
       id="clipPath46"><path
         d="M 7.2,7.2 H 336.96 V 192.96 H 7.2 Z"
         id="path44" /></clipPath><clipPath
       clipPathUnits="userSpaceOnUse"
       id="clipPath56"><path
         d="M 7.2,7.2 H 336.96 V 192.96 H 7.2 Z"
         id="path54" /></clipPath><clipPath
       clipPathUnits="userSpaceOnUse"
       id="clipPath66"><path
         d="M 7.2,7.2 H 336.96 V 192.96 H 7.2 Z"
         id="path64" /></clipPath></defs><g
     id="g8"
     transform="matrix(1.3333333,0,0,-1.3333333,0,266.88)"><g
       id="g10"><g
         id="g12"
         clip-path="url(#clipPath16)"><path
           d="M 29.34806,15.643636 H 89.006133"
           style="fill:none;stroke:#000000;stroke-width:2;stroke-linecap:butt;stroke-linejoin:round;stroke-miterlimit:10;stroke-dasharray:none;stroke-opacity:1"
           id="path18" /></g></g><g
       id="g30"><g
         id="g32"
         clip-path="url(#clipPath36)"><path
           d="m 22.189091,87.3819 1.491452,-11.40045 1.491452,-18.048638 1.491451,-19.711091 1.491452,-11.244739 1.491452,7.580553 1.491452,27.08526 1.491452,36.215341 1.491452,33.039534 1.491451,22.4649 1.491452,9.92176 1.491452,1.45589 1.491452,1.651 2.982904,14.19438 1.491451,-1.24945 1.491452,-14.63351 1.491452,-26.70383 1.491452,-32.50684 1.491452,-27.60565 1.491452,-12.967312 1.491451,2.251539 1.491452,9.337473 1.491452,8.387659 1.491452,4.543893 1.491452,2.00521 1.491452,4.367385 1.491451,13.167223 1.491452,22.95785 1.491452,24.79884 1.491452,16.27823 1.491452,2.77462 1.491452,-9.69805 2.982903,-32.87171 1.491452,-8.21466 1.491452,-1.68853 1.491452,-2.14261 1.491452,-7.33387 2.982903,-23.410193 1.491452,-5.50359 1.491452,6.657812 1.491452,18.677501 1.491452,22.80846 1.491451,18.05558 1.491452,9.78364 1.491452,2.85551 1.491452,-0.17418 1.491452,2.06804 1.491451,6.95703 1.491452,7.7707 1.491452,1.07267 1.491454,-9.16897 1.49145,-17.09479 1.49145,-19.77936 1.49145,-16.13228 1.49146,-7.35008 1.49145,0.82299 1.49145,2.40321 1.49145,-2.05499 1.49145,-7.17233 1.49145,-9.289651 1.49146,-7.43561 1.49145,-1.870212 2.9829,8.237295 1.49145,-2.886058 1.49146,-12.716958 1.49145,-19.823168 1.49145,-21.306583 1.49145,-13.678918 1.49145,4.33088 1.49145,24.538238 2.98291,67.336325 1.49145,23.14342 1.49145,12.47814 1.49145,4.66318 1.49146,4.06102 1.49145,8.83406 1.49145,9.51934 1.49145,0.44974 1.49145,-13.74483 1.49145,-25.86784 1.49146,-31.89137 1.49145,-28.517336 1.49145,-15.395707 1.49145,-0.34346 1.49145,7.006396 1.49146,6.022009 1.49145,2.852294 1.49145,1.672077 1.49145,4.511819 1.49145,12.916828 1.49145,23.05722 1.49146,25.92781 1.49145,17.8292 1.49145,4.42523 1.49145,-7.44076 2.98291,-29.33352 1.49145,-8.32334 1.49145,-2.03047 1.49145,-2.64937 1.49145,-8.44694 2.98291,-25.339411 1.49145,-6.586463 1.49145,4.769137 1.49145,16.968547 1.49145,22.04615 1.49146,17.8068 1.49145,9.95391 1.49145,3.97052 1.49145,1.44532 1.49145,3.07222 1.49145,7.45173 1.49146,8.59853 1.49145,2.06631 1.49145,-8.60149 1.49145,-16.63693 1.49145,-19.23497 1.49146,-16.32832 1.49145,-8.6456 1.49145,-0.60864 1.49145,1.45609 1.49145,-2.90336 1.49145,-7.90254 1.49146,-9.338427 1.49145,-7.138049 1.49145,-2.003188 1.49145,3.7735 1.49145,4.782111 1.49146,-1.824761 1.49145,-11.674114 2.9829,-38.276043 1.49145,-12.48202 1.49146,4.724273 1.49145,24.522987 1.49145,34.539878 1.49145,31.371843 1.49145,21.58951 1.49145,11.17958 1.49146,3.60551 1.49145,2.83419 1.49145,7.7533 1.49145,9.04901 1.49145,0.32512 1.49146,-13.76878 1.49145,-25.33552 1.49145,-30.65735 1.49145,-27.220845 1.49145,-14.378691 1.49145,0.700492 1.49146,7.978465 1.49145,6.428968 1.49145,2.819835 1.49145,1.682184 1.49145,4.354402 1.49146,12.1793 1.49145,22.04267 1.49145,25.06584 1.49145,16.91882 1.49145,3.40254 1.49145,-8.04229 2.98291,-29.1842 1.49145,-8.26457 1.49145,-1.72739 1.49145,-2.14423 1.49146,-8.09128 2.9829,-24.196593 1.49145,-5.803229 1.49145,5.087853 1.49145,16.987599 1.49146,22.01344 1.49145,17.51215 1.49145,9.37915 1.49145,3.60108 1.49145,1.38981 1.49146,2.90436 1.49145,7.10638 1.49145,8.4621 1.49145,2.14335 1.49145,-8.53552 1.49145,-16.3541 1.49146,-18.44788 1.49145,-15.39225 1.49145,-7.97332 1.49145,-0.0401 1.49145,2.09675 1.49146,-2.4536 1.49145,-7.68688 1.49145,-9.008845 1.49145,-6.709424 1.49145,-1.916238 1.49145,3.500945 1.49146,4.498991 1.49145,-2.115408 v 0"
           style="fill:none;stroke:#000000;stroke-width:2;stroke-linecap:square;stroke-linejoin:round;stroke-miterlimit:10;stroke-dasharray:none;stroke-opacity:1"
           id="path38" /></g></g><g
       id="g40"><g
         id="g42"
         clip-path="url(#clipPath46)"><path
           d="m 29.34806,9.643636 v 12"
           style="fill:#000000;fill-opacity:1;fill-rule:nonzero;stroke:#000000;stroke-width:2;stroke-linecap:butt;stroke-linejoin:round;stroke-miterlimit:10;stroke-dasharray:none;stroke-opacity:1"
           id="path48" /></g></g><g
       id="g50"><g
         id="g52"
         clip-path="url(#clipPath56)"><path
           d="m 89.006133,9.643636 v 12"
           style="fill:#000000;fill-opacity:1;fill-rule:nonzero;stroke:#000000;stroke-width:2;stroke-linecap:butt;stroke-linejoin:round;stroke-miterlimit:10;stroke-dasharray:none;stroke-opacity:1"
           id="path58" /></g></g><g
       id="g60"><g
         id="g62"
         clip-path="url(#clipPath66)" /></g></g></svg>
